<?xml version="1.0" encoding="UTF-8"?><svg id="a" xmlns="http://www.w3.org/2000/svg" width="121.2658" height="64" viewBox="0 0 121.2658 64"><g id="b"><g id="c"><polygon points="0 0 121.2658 0 121.2658 64 0 64 0 0" fill="none"/><path d="m52.2052,22.0771c-.092.3566-.299.6498-.6153.8799-.3163.2358-.6326.4026-.9431.5061-.3163.1035-.5751.138-.7764.1035-.1955-.0345-.2243-.1438-.092-.322.345-.4658.4486-.8511.322-1.1559-.1323-.3105-.414-.5406-.8454-.6901s-.9776-.2185-1.6332-.1955c-.6556.0172-1.3399.1323-2.053.3393-1.5239.437-2.9501,1.0754-4.2786,1.9207s-2.5303,1.8517-3.6057,3.0191c-1.0754,1.1732-2.0128,2.4901-2.8064,3.9508s-1.4204,3.0249-1.869,4.6984c1.6677-.3853,3.0134-.9661,4.0255-1.7482.2185-.1495.414-.138.5751.0402.069.0978.092.1955.0633.3105-.0287.1093-.092.1955-.184.2645-1.1962.9431-2.7489,1.6045-4.6696,1.9725-.161.9719-.2013,1.9035-.1093,2.7949.0863.8914.276,1.731.5636,2.5073.069.1955.0402.3566-.0805.4831-.1265.1323-.3048.2358-.5348.322-.2358.0805-.5003.1323-.8051.1553-.299.0172-.5866.0172-.8626-.0115-.2703-.0287-.5176-.092-.7361-.184-.2243-.0978-.3566-.2185-.414-.3738-.2473-.6038-.414-1.1674-.5061-1.7022-.0863-.5348-.1323-1.0236-.1438-1.4607-.0057-.437.0057-.8396.0345-1.1962.0287-.3508.0402-.6613.0402-.9201-.6843.023-1.3859.023-2.099-.0115s-1.4549-.0863-2.237-.1553c-.1668.3163-.3335.6153-.5061.8971-.1725.276-.3508.5578-.5463.8281-.4773.6613-1.0064,1.2479-1.593,1.7712-.5808.5176-1.1962.9604-1.8402,1.3112-.8856.4831-1.7597.7591-2.6051.8223-.0575.0172-.115.023-.1668.023h-.184c-.4946,0-.9489-.0805-1.3572-.2473-.0172-.0115-.0287-.0172-.0403-.0172-.2185-.0978-.3911-.2013-.5176-.3105-.3163-.2358-.5521-.5233-.7188-.8626-.161-.345-.2415-.7188-.2243-1.1329.0115-.4255.115-.8569.299-1.2939s.4486-.8511.7879-1.2307c.276-.3335.6096-.6268,1.0006-.8856s.8051-.4831,1.2422-.6613c.3681-.1495.7534-.2588,1.1501-.3393.3968-.0748.8109-.115,1.2364-.1323.2875,0,.5578.0172.8223.0402.2588.0287.5233.0633.7994.1035.207-.4946.3738-.9834.5061-1.4664.1265-.4888.2415-.9776.3393-1.4722.092-.4946.184-.9834.2645-1.4664.0805-.4888.1783-.9776.2875-1.4722-.2185-.1495-.4198-.3105-.5981-.4831s-.3623-.345-.5521-.5233c-.0287-.0402-.0575-.0805-.092-.115s-.069-.0633-.092-.092c-.3565-.3566-.7188-.6958-1.0926-1.0179-.3681-.322-.7879-.5808-1.2537-.7706-.5348-.2185-1.0696-.3163-1.6045-.299-.5348.023-1.0121.1495-1.4377.3796-.4255.2358-.7706.5693-1.0351,1.0121-.2703.437-.4083.9546-.4255,1.5585,0,.1783-.115.3105-.345.4026-.2358.0863-.4946.1323-.7706.1323-.2818,0-.5348-.0518-.7649-.1553-.2243-.1035-.3278-.253-.3163-.4601.0287-.4831.1553-.9201.3911-1.3284.23-.4026.5348-.7591.9144-1.0696.3738-.3048.8051-.5636,1.2939-.7706.4888-.2013.9891-.3508,1.5124-.437.5176-.092,1.0351-.115,1.5527-.0633.5118.046.9891.161,1.4262.3393.5348.2185,1.0064.5003,1.4089.8511s.7936.7073,1.1617,1.0811l.207.184c.1093.1208.2243.2415.345.3623.1265.115.2588.2243.3911.3393.069-.2358.1438-.4773.23-.7246.0805-.2415.1783-.4831.2875-.7188.3278-.7821.7706-1.4607,1.3342-2.0358s1.2077-1.0006,1.9322-1.2709c.6038-.2358,1.1962-.3278,1.777-.2875.5866.0402,1.1099.2013,1.5757.4946.1898.0805.3566.1955.5003.345.1438.1553.253.3278.322.5348.1495.3853.1725.8166.0575,1.2939-.0805.4026-.2415.8396-.4888,1.3169-.1955.3566-.414.6901-.6613,1.0006-.2473.3048-.5176.5751-.8223.8109-.6556.5463-1.4089.9144-2.26,1.1099-.1093.0287-.2128.046-.3105.0633-.092.0115-.1955.023-.3048.0402-.1783.8741-.3681,1.7712-.5751,2.6798-.207.9144-.5061,1.8057-.9029,2.6856.7361.069,1.4492.115,2.1335.1438.6843.023,1.3514.023,1.9955,0,.1668-1.2479.5061-2.4671,1.0294-3.6517.5176-1.1847,1.1847-2.306,1.9898-3.3584.8109-1.0581,1.7425-2.0415,2.7891-2.9501,1.0466-.9144,2.1853-1.7195,3.4102-2.4268s2.5246-1.2882,3.8875-1.7482,2.7661-.7764,4.2038-.9546c.7936-.0978,1.5412-.138,2.2485-.1265.7073.0172,1.3112.0863,1.823.2185.5061.1323.8914.322,1.1617.5751.2645.253.3508.5636.253.9374h0ZM15.4522,39.1971c-.0172.2875.0345.5693.1438.8338.1093.2703.2818.4658.5118.5866.3565.1898.7361.2358,1.1329.1323s.7879-.2933,1.1789-.5751.7706-.6211,1.1329-1.0294c.3623-.4026.6843-.8166.9661-1.2422s.5176-.8338.7073-1.2249c.1955-.3853.3163-.7131.3738-.9719-.414-.0863-.8511-.1265-1.3169-.1265h-.0633c-.7649.0287-1.4607.161-2.076.3911-.7649.3163-1.3917.7476-1.869,1.2939-.2588.2875-.4658.6038-.6096.9489-.1438.3393-.2128.6728-.2128.9834h0Zm15.3545-13.5257c.069-.3278.0575-.6153-.0402-.8626-.1093-.276-.2703-.4428-.4716-.5118-.1265-.0402-.2473-.0633-.3738-.0633-.161,0-.3335.0345-.5118.1035-.207.0805-.4255.2128-.6556.3911-.0978.0978-.1955.1955-.2875.299-.0978.1035-.1783.207-.2473.3163-.1668.2358-.299.4773-.4026.7303s-.2013.5061-.299.7476c-.1208.4026-.23.7994-.3278,1.1962s-.184.7936-.2703,1.1904c.115,0,.2415-.0172.3911-.0633.6901-.1495,1.3112-.4486,1.8747-.9029.4773-.4083.8799-.9201,1.2134-1.5182.1093-.1955.1955-.3796.253-.5578.0633-.1783.115-.345.1553-.4946h0Z" fill="#00274c"/><path d="m43.8609,28.8572c0,.2185-.0402.3796-.1265.4773-.1093.2013-.276.3048-.5118.3048-.1668,0-.3105-.0518-.4428-.161-.1265-.1093-.1955-.2588-.1955-.4313,0-.115.0345-.2128.092-.3105.0633-.0978.1438-.1783.2358-.2473-.1093-.1898-.2358-.2875-.3796-.2875s-.299.0575-.4601.1725c-.1668.1208-.3335.276-.5061.4773-.1668.1955-.3393.3968-.5003.6038-.2875.3681-.5693.7994-.8338,1.2824-.2703.4888-.5061.9891-.7073,1.5009-.207.5176-.3738,1.0236-.4946,1.5239-.1265.5003-.1898.9546-.1955,1.3687-.0057.4083.0518.7476.1725,1.0179.1265.2645.3278.4255.6211.4831.2013.0402.4313-.0518.6843-.2818.253-.2243.5061-.5176.7649-.8741.253-.3566.5003-.7418.7361-1.1617.2415-.414.4486-.8051.6268-1.1617-.2875-.1208-.4831-.322-.5923-.6038s-.1438-.5636-.1035-.8511.1495-.5406.3278-.7649c.1783-.2185.4026-.3278.6786-.3278.0978,0,.2185.0057.3681.023.1495.0115.2818.0863.3911.2128.1093.1323.1725.3393.184.6268.0172.2875-.0575.7073-.2243,1.2537.5463-.0115.9891-.0863,1.3169-.2243s.5866-.2875.7706-.4543c.184-.161.3048-.322.3681-.4831.0633-.1553.1093-.253.1323-.2933.046-.0978.1093-.1553.1955-.1783.092-.0172.1783-.0115.2588.0345.0805.0402.1438.1035.184.1955.0402.0863.0402.184,0,.2933-.1093.2645-.2818.5003-.5118.7188-.2358.2243-.5061.4083-.8109.5578-.3105.1495-.6556.2645-1.0294.3508-.3796.0805-.7591.115-1.1444.1035-.1898.4198-.4313.8971-.7246,1.4147-.299.5233-.6383,1.0064-1.0179,1.4492-.3853.4486-.8051.8109-1.2652,1.0984-.4601.2933-.9489.414-1.4722.3738-.6843-.069-1.2191-.3566-1.6102-.8626s-.6038-1.1271-.6268-1.8517c-.0172-.5463.0402-1.1214.161-1.7137.1265-.5981.3105-1.1847.5578-1.7597s.5463-1.1214.9029-1.6332c.3566-.5176.7591-.9661,1.2019-1.3457.4486-.3853.9316-.6786,1.4607-.8856s1.0811-.2933,1.6562-.2703c.2588.0172.4716.0748.6441.1783s.3105.2243.4255.3681c.1093.1438.1898.3048.2415.4716.0575.1725.0978.3335.1265.4831h0Z" fill="#00274c"/><path d="m52.5963,28.8572c0,.2185-.0402.3796-.1208.4773-.1093.2013-.2818.3048-.5176.3048-.161,0-.3105-.0518-.4428-.161-.1265-.1093-.1955-.2588-.1955-.4313,0-.115.0345-.2128.0978-.3105.0575-.0978.138-.1783.2358-.2473-.1093-.1898-.2358-.2875-.3796-.2875-.1495,0-.299.0575-.4658.1725-.1668.1208-.3335.276-.5003.4773-.1725.1955-.3393.3968-.5061.6038-.2875.3681-.5636.7994-.8338,1.2824-.2645.4888-.5003.9891-.7073,1.5009-.207.5176-.3738,1.0236-.4946,1.5239s-.1898.9546-.1955,1.3687c-.0057.4083.0518.7476.1725,1.0179.1265.2645.3335.4255.6211.4831.2013.0402.4313-.0518.6843-.2818.2588-.2243.5118-.5176.7649-.8741s.5003-.7418.7361-1.1617c.2415-.414.4486-.8051.6268-1.1617-.2875-.1208-.4831-.322-.5923-.6038s-.1438-.5636-.1035-.8511c.0403-.2875.1495-.5406.3278-.7649.1783-.2185.4026-.3278.6786-.3278.0978,0,.2185.0057.3681.023.1553.0115.2818.0863.3911.2128.1093.1323.1725.3393.184.6268.0172.2875-.0575.7073-.2243,1.2537.5463-.0115.9891-.0863,1.3169-.2243s.5866-.2875.7706-.4543c.184-.161.3105-.322.3681-.4831.0633-.1553.1093-.253.138-.2933.0402-.0978.1035-.1553.1955-.1783.0863-.0172.1725-.0115.253.0345.0805.0402.1438.1035.184.1955.046.0863.046.184,0,.2933-.1093.2645-.276.5003-.5118.7188-.2358.2243-.5061.4083-.8109.5578-.3105.1495-.6498.2645-1.0294.3508-.3738.0805-.7591.115-1.1386.1035-.1955.4198-.437.8971-.7303,1.4147-.2933.5233-.6326,1.0064-1.0179,1.4492-.3853.4486-.8051.8109-1.2652,1.0984-.4601.2933-.9489.414-1.4722.3738-.6843-.069-1.2191-.3566-1.6102-.8626s-.5981-1.1271-.6268-1.8517c-.0172-.5463.0402-1.1214.161-1.7137.1265-.5981.3105-1.1847.5578-1.7597s.5463-1.1214.9029-1.6332c.3566-.5176.7591-.9661,1.2019-1.3457.4486-.3853.9316-.6786,1.4607-.8856s1.0811-.2933,1.6562-.2703c.2588.0172.4773.0748.6441.1783.1725.1035.3163.2243.4255.3681s.1898.3048.2473.4716c.0518.1725.092.3335.1208.4831h0Z" fill="#00274c"/><path d="m57.3866,36.0514c0,.2645-.115.4486-.3508.5578.0805.1668.2013.2473.3508.2473.1783.0115.3853-.0748.6268-.2588s.4946-.4486.7591-.7994c.2703-.3508.5463-.7764.8338-1.2882.2875-.5061.5751-1.0811.8626-1.7252.1783-.3968.3278-.8338.4428-1.3054s.184-.9201.207-1.3457c.0172-.4255-.0172-.7936-.115-1.0984-.0978-.3105-.276-.5003-.5348-.5693-.23-.0518-.4773-.0115-.7303.1265s-.5061.3393-.7591.6038c-.253.2703-.5061.5866-.7591.9604-.253.3681-.5003.7534-.7303,1.1502-.276.7131-.5981,1.4837-.9776,2.3118s-.7649,1.6735-1.1732,2.5303c-.4026.8511-.7994,1.685-1.1789,2.4958-.3853.8051-.7188,1.547-1.0064,2.2198s-.5061,1.2422-.6498,1.708-.1725.7764-.092.9431c.0518.1093.0115.2243-.1323.3393s-.3335.1783-.5578.184-.4601-.0633-.6958-.2128c-.2415-.1553-.4255-.4313-.5463-.8454-.0805-.2473-.0575-.6441.069-1.1904.1323-.5521.3335-1.1904.5981-1.9207.2703-.7361.5808-1.5297.9374-2.3751.3566-.8511.7188-1.708,1.0984-2.5706.3738-.8626.7418-1.7022,1.0869-2.5188.3508-.8166.6556-1.547.9144-2.191.2645-.6441.4543-1.1789.5808-1.6045.1208-.4198.1438-.6786.0575-.7591-.092-.0805-.0518-.1783.1323-.2875.1898-.1093.4198-.1725.7016-.184s.5636.046.8511.184.4946.414.6211.8223c.0402.1495.046.3681.0172.6613.5233-.6326,1.0926-1.0984,1.708-1.3917s1.3054-.2875,2.076.0115c.5463.2358.9431.5578,1.1789.9776.2415.414.3853.8741.4255,1.3744s0,1.0236-.1265,1.5642c-.1208.5406-.2703,1.0351-.4486,1.4894-.3566.8914-.7534,1.6447-1.1962,2.26-.437.6211-.8971,1.1099-1.3744,1.4837.6843-.1553,1.2882-.4428,1.8172-.8741s1.0294-.9374,1.5124-1.5124c.4543-.5348.8569-1.0811,1.2249-1.6332.3623-.5578.6613-1.0581.8914-1.5124.0402-.0978.1035-.161.184-.1955.0863-.0345.184-.0172.3105.0518.0978.0575.1553.1323.1725.2243.023.0978.0115.1898-.0287.2703-.3278.6728-.7073,1.3227-1.1386,1.9495-.437.6326-.9086,1.2422-1.4319,1.8345-.345.3796-.7073.7361-1.0869,1.0581-.3853.322-.8166.5866-1.2882.7994s-.9949.3623-1.57.4428-1.2191.0805-1.9322,0h-.3105c-.161-.0115-.3393-.046-.5233-.092s-.3566-.1265-.5118-.2358c-.161-.1093-.2933-.2588-.4026-.4428s-.1668-.414-.1668-.6901c0-.299.0633-.5003.184-.5923.138-.138.2933-.207.4543-.207.1668,0,.3105.0518.4428.161s.1955.253.1955.4313h-.0001Z" fill="#00274c"/><path d="m73.9775,31.0195c.161.1093.2013.2588.1208.4486-.23.4946-.5118,1.0121-.8338,1.5527s-.6843,1.0696-1.0869,1.5815c-.4026.5176-.8338.9891-1.2882,1.4204-.4486.4313-.9201.7879-1.4032,1.0581-.4888.276-.9834.4543-1.4952.5348-.5061.0805-1.0064.023-1.5009-.184-.5463-.2185-.9374-.5406-1.1789-.9546-.2415-.4198-.3796-.8799-.4198-1.3917-.046-.5061,0-1.0294.1208-1.57.1265-.5406.276-1.0409.4543-1.4894.3278-.8396.6958-1.547,1.0984-2.1278s.8338-1.0581,1.2824-1.4319c.4543-.3681.9201-.6441,1.3974-.8223.4831-.1783.9661-.2645,1.4607-.2645.5061,0,.8799.1208,1.1214.3681s.3623.5693.3623.9661-.1093.8396-.3335,1.3169c-.2185.4773-.5291.9489-.9316,1.4089-.4083.4601-.8971.8741-1.4722,1.2537s-1.2191.6613-1.9322.8511c-.0978.3566-.161.7131-.207,1.0581-.0402.3508-.046.6728-.0172.9604s.092.5233.1955.7188c.1035.1898.2588.3048.4601.3508.3048.0518.6268.0057.9776-.138s.7073-.3566,1.0696-.6441.7188-.6268,1.0696-1.0064c.3508-.3853.6786-.7879.9834-1.2134.3105-.4255.5866-.8511.8223-1.2652.2415-.4198.4313-.8051.5693-1.1617.0402-.1093.1093-.184.2128-.2243.1035-.046.2128-.0287.322.0402h0Zm-6.0268,1.2939c-.069.1495-.1208.2875-.161.4083.8223-.2875,1.4952-.6786,2.0243-1.1789.5233-.5003.9201-.9949,1.1789-1.4837.2645-.4831.3968-.9029.4026-1.2594s-.115-.5463-.3623-.5578c-.3681-.0115-.8338.345-1.3974,1.0696-.5578.7246-1.1214,1.7252-1.685,3.0019h0Z" fill="#00274c"/><path d="m74.035,31.6348c-.0402.0805-.1035.138-.1955.1668-.0863.023-.1668.023-.2473,0-.0748-.0287-.1323-.0805-.184-.1553-.046-.0748-.0518-.1668-.0115-.2818.046-.1208.1208-.3105.23-.5636s.2185-.5176.3278-.7994.2185-.5578.3278-.8223c.1093-.2703.184-.4888.23-.6671-.3163-.1553-.5866-.3911-.8166-.7246-.2243-.3278-.3393-.6556-.3393-.9834,0-.4255.1093-.7879.3335-1.0926.2185-.299.5463-.4486.9834-.4486.276,0,.5118.1093.7073.3393.2013.2243.3048.4946.322.8109,0,.1783-.0115.4255-.0345.7418-.0172.3105-.0575.5751-.1093.7764.069.0575.161.092.276.1035.115.0172.2415.023.3796.023.3048,0,.5406-.0345.7131-.1035.1668-.069.3163-.138.437-.2128.1265-.0805.2473-.1495.3738-.2185.1208-.069.2875-.1035.4946-.1035.2703,0,.5463.069.8223.207.2703.138.4716.4026.5923.7994.1265.3968.1035.8799-.0633,1.4492-.161.5693-.3911,1.1617-.6843,1.777-.299.6211-.6096,1.2307-.9489,1.8345-.3335.5981-.6153,1.1386-.8396,1.6102-.23.4716-.3566.8511-.3911,1.1329s.1035.4083.4198.3796c.1265-.0115.2933-.1208.5118-.3278.2243-.207.4601-.4716.7246-.7936.2588-.322.5233-.6786.7994-1.0811.276-.3968.5348-.7936.7821-1.1904s.4658-.7706.6556-1.1271c.1955-.3566.3278-.6556.414-.8856.0402-.1093.1093-.1783.2013-.207.0978-.0287.1898-.0287.2703,0s.1438.0805.1955.1668c.046.0805.046.1668-.0115.2645-.1093.2358-.2645.5521-.4716.9546-.207.4083-.4486.8396-.7303,1.2997-.2818.4543-.5866.9201-.9144,1.3859s-.6671.8914-1.0179,1.2709c-.3508.3853-.7016.7016-1.0581.9489s-.7016.3681-1.0294.3681c-.276.0172-.5118-.0402-.7073-.161-.2013-.1265-.3623-.299-.4831-.5233-.1265-.23-.207-.5003-.2473-.8223s-.0402-.6728,0-1.0409c.0518-.5348.184-1.1041.3911-1.708s.4313-1.1962.6786-1.777.4831-1.1271.7188-1.6332c.23-.5061.4026-.9374.5118-1.2939-.2875.1093-.6096.1725-.9776.1955-.3623.0172-.7188-.0172-1.0754-.115-.0402.0978-.115.2703-.2185.5233s-.2128.5291-.3393.8223c-.1208.2933-.2473.5808-.3681.8626-.1265.2818-.2243.5003-.3105.6498h0Z" fill="#00274c"/><path d="m94.1626,37.2245l-.0172.023c-.3048.1495-.5923.2645-.8626.3508-.276.0805-.5061.1208-.7016.1208-.5463,0-.9661-.138-1.2652-.4198-.2933-.2818-.4888-.6153-.5866-1.0006-.092-.3796-.1093-.7649-.0402-1.1502s.2013-.6786.3911-.8856c.276-.2875.5233-.4773.7418-.5751.2185-.092.4026-.1265.5521-.1035.1553.0172.2933.0805.4255.1898.1265.1093.1955.2473.1955.4083,0,.1783-.069.3278-.1955.4543-.1323.1208-.2818.184-.4428.184-.1265,0-.2415-.0402-.3508-.115s-.184-.1725-.2243-.299c-.1783.207-.3048.4543-.3738.7418-.0633.2875-.0805.5636-.0402.8223s.1495.4831.322.6671c.1668.184.4083.2875.7073.299.1093,0,.2645-.0518.4716-.1553s.414-.2703.6268-.5118.4026-.5463.5693-.9259c.161-.3738.2588-.8338.2933-1.3687s-.023-1.1559-.1725-1.869-.437-1.5124-.8626-2.4038c-.138.2588-.2933.5463-.4658.8511-.1668.3105-.322.6038-.4601.8741-.069.0978-.1495.1495-.2473.1668-.0978.0115-.184,0-.2645-.0345-.0863-.0345-.1438-.0863-.1783-.161s-.023-.161.0345-.2588c.1093-.23.2128-.4428.3048-.6268.0978-.184.1955-.3566.2875-.5233.0978-.1668.184-.3335.2703-.5061.0805-.1668.1725-.3508.2645-.5406-.1495-.2185-.2645-.4601-.3508-.7188-.0805-.2645-.1208-.5348-.1208-.8223,0-.1265.023-.2818.0748-.4658.046-.184.1265-.3681.2415-.5521.1208-.1898.2818-.345.4831-.4773.207-.1265.4773-.1955.8051-.1955.3393,0,.5923.0805.7476.23.161.1495.2473.3393.2588.5751.0115.23-.0345.4888-.1438.7706s-.253.5578-.4313.8338l-.0633.1208c.5348.6153.9661,1.2077,1.2882,1.7712.322.5578.5636,1.0926.7246,1.5987.1668.5118.2588.9834.2818,1.4204.0172.437-.0172.8511-.115,1.2307.4543-.5176.8569-1.0294,1.2134-1.5412.3566-.5061.6498-.9834.8856-1.4377.0402-.0978.1035-.161.184-.1955s.184-.0172.3048.0518c.0978.0575.1553.1323.1783.2243.0172.0978.0115.1898-.0287.2703-.3335.6728-.7131,1.2997-1.1444,1.892-.4313.5866-.9086,1.1789-1.4262,1.7655-.3738.414-.7591.7821-1.1617,1.1099-.4083.3278-.8626.6038-1.3687.8223h-.0231Z" fill="#00274c"/><path d="m69.0721,24.0151l-5.1469.4601h7.2172c.5578-1.0409,1.4607-2.2945,1.8517-2.7604,5.2964-6.3258,14.2906-7.683,21.5595-2.8639,1.3399.8914,2.1565,1.8057,3.1169,2.8754.8914.9834,1.3342,1.8402,1.8287,2.7489h8.4248l.3681-.0402-6.6248-.4946c-.3681-.4255-.8856-1.4894-1.2422-2.0243-.8338-1.2364-1.9725-2.5706-3.0881-3.5022-.3278-.276-.5463-.4946-.8856-.7591-8.3616-6.5559-20.6509-4.2441-26.1486,4.1923-.345.5291-1.0064,1.5182-1.2307,2.168h0Z" fill="#ffcb05" fill-rule="evenodd"/><path d="m73.8855,24.4752c2.122-1.0409,3.3297-1.7195,6.5731-1.6965,4.5028.0345,3.4102.9431,8.6319-.0115-.2588-.3853-.5118-.4946-.8856-.7476-2.5016-1.6792-4.9629-2.7834-8.2178-2.8121-1.6907-.0115-2.7086,1.0524-4.0888,2.1278-.5923.4601-2.0703,2.0473-2.6626,3.1399h.6498Z" fill="#08254d" fill-rule="evenodd"/><path d="m91.1895,24.4752c-1.5815-1.5642-.9259-.9259-2.9731-.7016-3.2492.3566-6.8146-.6786-10.3973-.023-.7131.1265-1.4549.322-2.0875.5866-.092.0345-.2013.0805-.3163.138h15.7743Z" fill="#08254d" fill-rule="evenodd"/><path d="m81.0222,18.5059c6.3661.9719,7.568,3.4044,9.0114,3.7955.5808-1.0926.8799-1.4492.3105-3.0019-.3566-.9719-.7418-1.0236-2.5591-1.3342-1.6677-.2875-3.5137-.276-5.1987.0518-.4198.0863-1.2134.2185-1.5642.4888Z" fill="#08254d" fill-rule="evenodd"/><path d="m90.5454,22.98c.414.2243,1.1847.9834,1.6217,1.4952h1.4147c.345-.0978.6958-.1898,1.0639-.2588.8051-.161,1.5642-.2013,2.3578-.345-.6958-1.5354-4.2153-4.3993-5.8428-4.8364.5061,2.7719.0345,2.4211-.6153,3.945h0Z" fill="#08254d" fill-rule="evenodd"/><path d="m63.0396,39.3523l5.9233.3853c.6901,2.3981,3.991,5.7277,6.067,7.2172,5.9175,4.2325,14.3998,4.1923,20.4036.1438,1.1156-.7476,2.6626-2.0818,3.4907-3.0939.5176-.6326.9431-1.0926,1.4549-1.8402.322-.4658,1.0236-1.5585,1.2249-2.168l4.9801-.6441h-6.9239c-1.0064,2.1048-3.3929,4.6696-5.1757,5.8543-2.5476,1.685-5.4977,2.8984-9.322,2.8581-3.6517-.0402-6.8779-1.3342-9.1782-3.0076-1.5872-1.1444-3.807-3.3527-4.9629-5.7047h-7.982,0Z" fill="#ffcb05" fill-rule="evenodd"/><path d="m73.7935,40.2667c1.3342,2.5648,5.5725,5.1699,8.7871,5.7047.7706-1.1386,1.593-2.26,2.3751-3.5942.4716-.8109,1.2077-2.0128,1.7022-3.0249h-12.2318c-.2128.3105-.4255.6211-.6326.9144h0Z" fill="#08254d" fill-rule="evenodd"/><path d="m83.5295,46.1325c4.06.2933,7.0216-.2703,10.3456-2.7086.6441-.4658.5808-.5406.8511-1.3802.1553-.4716.6096-1.7885.8281-2.6913h-7.9993c-.7994,1.5815-1.9898,3.7092-2.8064,4.9399-.322.4831-1.0179,1.4032-1.2191,1.8402h0Z" fill="#08254d" fill-rule="evenodd"/><path d="m95.5485,41.8769c.4543-.2645,1.4204-1.5642,2.0013-2.5246h-1.4089l-.5923,2.5246Z" fill="#08254d" fill-rule="evenodd"/><path d="m73.2817,39.6399c.0805-.0633.1955-.1668.3105-.2875h-.4658c.0518.092.1035.1898.1553.2875Z" fill="#08254d" fill-rule="evenodd"/><path d="m87.5263,28.0406c.1495-.138.1898-.4773.23-.7764,0-.0115.0057-.023.0057-.0345-.1668-.0518-.3335-.092-.5061-.1208-.6556-.1265-1.3054-.1265-1.9265-.0172.3796.2818.9546.7418,1.57,1.3802.2818-.161.5003-.322.6268-.4313h0Z" fill="#00274c" fill-rule="evenodd"/><path d="m89.6253,31.5486c-.2645-.0172-.4888-.0172-.6901.0057.5981,1.731.5751,3.7725.3911,5.2217,1.0581-.7361,1.8517-1.8517,2.1623-3.1974-.4716-.8626-1.0984-1.9725-1.8632-2.03Z" fill="#00274c" fill-rule="evenodd"/><path d="m84.5589,29.1965c.6556-.0115,1.3054-.2185,1.8402-.4658-.8569-.8626-1.6102-1.3687-1.7597-1.4664-1.1271.3623-2.1105,1.0869-2.7834,2.0588.6613-.1265,1.3572-.1265,2.0358-.1265h.6671Z" fill="#00274c" fill-rule="evenodd"/><path d="m88.1703,30.0361c.046.0633.092.1323.138.2013.161.2588.3048.5291.4255.8109.2703-.0518.5751-.0633.9316-.0345.8454.0633,1.4549.8569,1.9495,1.6965.069-1.1214-.2128-2.1968-.7591-3.1054-.3911-.0287-.8338-.0287-1.2882.0172-.299.0345-.7936.1783-1.3974.414h0Z" fill="#00274c" fill-rule="evenodd"/><path d="m86.9627,32.624c.3566-.6901.7073-1.1674,1.2537-1.4204-.1035-.2358-.2243-.4601-.3623-.6728-.0633-.0978-.1265-.1898-.1898-.2875-2.1968.9604-5.3194,2.8869-5.9635,4.9514.6441,1.0409,1.639,1.8517,2.8524,2.26.6211-.8166,1.3974-2.5706,1.8575-3.6172.2185-.5003.4083-.9374.5521-1.2134h0Z" fill="#00274c" fill-rule="evenodd"/><path d="m84.9787,31.0482c.7936-.4946,1.616-.9201,2.3578-1.2479-.184-.2358-.3681-.4543-.5521-.6613-.6211.3105-1.4089.5751-2.214.5923-.23.0057-.4601,0-.6786,0-.8626,0-1.685,0-2.4211.2473-.2185.4313-.3796.9029-.4773,1.4032-.2128,1.1156-.0575,2.2198.3796,3.1859.6728-1.4549,2.2773-2.6913,3.6057-3.5194h0Z" fill="#00274c" fill-rule="evenodd"/><path d="m87.8483,29.5818c.7016-.2818,1.2939-.4543,1.662-.4946.3335-.0345.6556-.0402.9604-.0345-.5693-.7188-1.3169-1.2939-2.191-1.6447-.0518.3681-.115.7764-.3968,1.0294-.1265.115-.345.276-.6153.437.1955.2185.3911.4543.5808.7073h0Z" fill="#00274c" fill-rule="evenodd"/><path d="m87.44,32.8712c-.1323.2645-.322.6901-.5406,1.1847-.6441,1.4549-1.2364,2.7546-1.8,3.554.0575.0115.115.023.1668.0345,1.2307.23,2.4383.023,3.4677-.5118.2473-1.5009.2875-3.6862-.3163-5.4344-.4026.1955-.6671.5693-.9776,1.1732h0Z" fill="#00274c" fill-rule="evenodd"/></g></g></svg>