<?xml version="1.0" encoding="UTF-8"?><svg id="a" xmlns="http://www.w3.org/2000/svg" width="612" height="791.9999" viewBox="0 0 612 791.9999"><g id="b"><g id="c"><polygon points="7.1292 238.2661 604.8708 238.2661 604.8708 553.7338 7.1292 553.7338 7.1292 238.2661" style="fill:none;"/><path d="m264.4583,347.0882c-.4535,1.7575-1.474,3.2031-3.0331,4.337-1.5591,1.1622-3.1181,1.9843-4.6488,2.4945-1.5591.5102-2.8346.6803-3.8268.5102-.9638-.1701-1.1055-.7087-.4535-1.5874,1.7008-2.2961,2.211-4.1953,1.5874-5.6976-.652-1.5307-2.0409-2.6646-4.1669-3.4016s-4.8189-1.0772-8.0504-.9638c-3.2315.085-6.6047.652-10.1197,1.6724-7.5118,2.1543-14.5417,5.3008-21.0898,9.4677s-12.4724,9.1276-17.7732,14.8819c-5.3008,5.7827-9.9213,12.274-13.8331,19.474s-7.0016,14.9102-9.2126,23.1591c8.2205-1.8992,14.8535-4.7622,19.8425-8.6173,1.0772-.737,2.0409-.6803,2.8346.1984.3402.4819.4535.9638.3118,1.5307-.1417.5386-.4535.9638-.9071,1.3039-5.8961,4.6488-13.5496,7.9087-23.0173,9.7228-.7937,4.7906-.9921,9.3827-.5386,13.7764.4252,4.3937,1.3606,8.5323,2.778,12.3591.3402.9638.1984,1.7575-.3969,2.3811-.6236.652-1.5024,1.1622-2.6362,1.5874-1.1622.3969-2.4661.652-3.9685.7654-1.474.085-2.8913.085-4.252-.0567-1.3323-.1417-2.5512-.4535-3.6283-.9071-1.1055-.4819-1.7575-1.0772-2.0409-1.8425-1.2189-2.9764-2.0409-5.7543-2.4945-8.3906-.4252-2.6362-.652-5.0457-.7087-7.2-.0283-2.1543.0283-4.1386.1701-5.8961.1417-1.7291.1984-3.2598.1984-4.5354-3.3732.1134-6.8315.1134-10.3465-.0567s-7.1717-.4252-11.0268-.7654c-.822,1.5591-1.6441,3.0331-2.4945,4.422-.8504,1.3606-1.7291,2.7496-2.6929,4.0819-2.3528,3.2598-4.9606,6.1512-7.852,8.7307-2.863,2.5512-5.8961,4.7339-9.0709,6.463-4.3654,2.3811-8.674,3.7417-12.8409,4.0535-.2835.085-.5669.1134-.822.1134h-.9071c-2.4378,0-4.6772-.3969-6.6898-1.2189-.085-.0567-.1417-.085-.1984-.085-1.0772-.4819-1.9276-.9921-2.5512-1.5307-1.5591-1.1622-2.7213-2.5795-3.5433-4.252-.7937-1.7008-1.1906-3.5433-1.1055-5.5843.0567-2.0976.5669-4.2236,1.474-6.378s2.211-4.1953,3.8835-6.0661c1.3606-1.6441,3.0047-3.0898,4.9323-4.3654s3.9685-2.3811,6.1228-3.2598c1.8142-.737,3.7134-1.2756,5.6693-1.6724,1.9559-.3685,3.9969-.5669,6.0945-.652,1.4173,0,2.7496.085,4.0535.1984,1.2756.1417,2.5795.3118,3.9402.5102,1.0205-2.4378,1.8425-4.8472,2.4945-7.2283.6236-2.4094,1.1906-4.8189,1.6724-7.2567.4535-2.4378.9071-4.8472,1.3039-7.2283.3969-2.4094.8787-4.8189,1.4173-7.2567-1.0772-.737-2.0693-1.5307-2.948-2.3811s-1.7858-1.7008-2.7213-2.5795c-.1417-.1984-.2835-.3969-.4535-.5669s-.3402-.3118-.4535-.4535c-1.7575-1.7575-3.5433-3.4299-5.3858-5.0173-1.8142-1.5874-3.8835-2.863-6.1795-3.7984-2.6362-1.0772-5.2724-1.5591-7.9087-1.474-2.6362.1134-4.989.737-7.0866,1.8709-2.0976,1.1622-3.7984,2.8063-5.1024,4.989-1.3323,2.1543-2.0126,4.7055-2.0976,7.6819,0,.8787-.5669,1.5307-1.7008,1.9843-1.1622.4252-2.4378.652-3.7984.652-1.389,0-2.6362-.2551-3.7701-.7654-1.1055-.5102-1.6157-1.2472-1.5591-2.2677.1417-2.3811.7654-4.5354,1.9276-6.548,1.1339-1.9843,2.6362-3.7417,4.5071-5.2724,1.8425-1.5024,3.9685-2.778,6.378-3.7984,2.4094-.9921,4.8756-1.7291,7.4551-2.1543,2.5512-.4535,5.1024-.5669,7.6535-.3118,2.5228.2268,4.8756.7937,7.0299,1.6724,2.6362,1.0772,4.9606,2.4661,6.9449,4.1953s3.9118,3.4866,5.726,5.3291l1.0205.9071c.5386.5953,1.1055,1.1906,1.7008,1.7858.6236.5669,1.2756,1.1055,1.9276,1.6724.3402-1.1622.7087-2.3528,1.1339-3.5717.3969-1.1906.8787-2.3811,1.4173-3.5433,1.6157-3.8551,3.7984-7.2,6.5764-10.0346s5.9528-4.9323,9.5244-6.2646c2.9764-1.1622,5.8961-1.6157,8.7591-1.4173,2.8913.1984,5.4709.9921,7.7669,2.4378.9354.3969,1.7575.9638,2.4661,1.7008.7087.7654,1.2472,1.6157,1.5874,2.6362.737,1.8992.8504,4.0252.2835,6.378-.3969,1.9843-1.1906,4.1386-2.4094,6.4913-.9638,1.7575-2.0409,3.4016-3.2598,4.9323-1.2189,1.5024-2.5512,2.8346-4.0535,3.9969-3.2315,2.6929-6.9449,4.5071-11.1402,5.4709-.5386.1417-1.0488.2268-1.5307.3118-.4535.0567-.9638.1134-1.5024.1984-.8787,4.3087-1.8142,8.7307-2.8346,13.2094-1.0205,4.5071-2.4945,8.9008-4.4504,13.2378,3.6283.3402,7.1433.5669,10.5165.7087,3.3732.1134,6.6614.1134,9.8362,0,.822-6.1512,2.4945-12.1606,5.074-18,2.5512-5.8394,5.8394-11.3669,9.8079-16.5543,3.9969-5.2157,8.589-10.063,13.748-14.5417,5.1591-4.5071,10.7717-8.4756,16.8094-11.9622s12.4441-6.3496,19.1622-8.6173,13.6346-3.8268,20.7213-4.7055c3.9118-.4819,7.5968-.6803,11.0835-.6236,3.4866.085,6.463.4252,8.9858,1.0772,2.4945.652,4.3937,1.5874,5.726,2.8346,1.3039,1.2472,1.7291,2.778,1.2472,4.6205Zm-181.1622,84.3874c-.085,1.4173.1701,2.8063.7087,4.1102.5386,1.3323,1.389,2.2961,2.5228,2.8913,1.7575.9354,3.6283,1.1622,5.5843.652s3.8835-1.4457,5.811-2.8346,3.7984-3.0614,5.5843-5.074c1.7858-1.9843,3.3732-4.0252,4.7622-6.1228s2.5512-4.1102,3.4866-6.0378c.9638-1.8992,1.5591-3.515,1.8425-4.7906-2.0409-.4252-4.1953-.6236-6.4913-.6236h-.3118c-3.7701.1417-7.2.7937-10.2331,1.9276-3.7701,1.5591-6.8598,3.685-9.2126,6.378-1.2756,1.4173-2.2961,2.9764-3.0047,4.6772-.7087,1.6724-1.0488,3.3165-1.0488,4.8472Zm75.685-66.6709c.3402-1.6157.2835-3.0331-.1984-4.252-.5386-1.3606-1.3323-2.1827-2.3244-2.5228-.6236-.1984-1.2189-.3118-1.8425-.3118-.7937,0-1.6441.1701-2.5228.5102-1.0205.3969-2.0976,1.0488-3.2315,1.9276-.4819.4819-.9638.9638-1.4173,1.474-.4819.5102-.8787,1.0205-1.2189,1.5591-.822,1.1622-1.474,2.3528-1.9843,3.6s-.9921,2.4945-1.474,3.685c-.5953,1.9843-1.1339,3.9402-1.6157,5.8961s-.9071,3.9118-1.3323,5.8677c.5669,0,1.1906-.085,1.9276-.3118,3.4016-.737,6.463-2.211,9.2409-4.4504,2.3528-2.0126,4.337-4.5354,5.9811-7.4835.5386-.9638.9638-1.8709,1.2472-2.7496.3118-.8787.5669-1.7008.7654-2.4378Z" style="fill:#00274c;"/><path d="m223.3276,380.5086c0,1.0772-.1984,1.8709-.6236,2.3528-.5386.9921-1.3606,1.5024-2.5228,1.5024-.822,0-1.5307-.2551-2.1827-.7937-.6236-.5386-.9638-1.2756-.9638-2.126,0-.5669.1701-1.0488.4535-1.5307.3118-.4819.7087-.8787,1.1622-1.2189-.5386-.9354-1.1622-1.4173-1.8709-1.4173s-1.474.2835-2.2677.8504c-.822.5953-1.6441,1.3606-2.4945,2.3528-.822.9638-1.6724,1.9559-2.4661,2.9764-1.4173,1.8142-2.8063,3.9402-4.1102,6.3213-1.3323,2.4094-2.4945,4.8756-3.4866,7.3984-1.0205,2.5512-1.8425,5.0457-2.4378,7.5118-.6236,2.4661-.9354,4.7055-.9638,6.7465-.0283,2.0126.2551,3.685.8504,5.0173.6236,1.3039,1.6157,2.0976,3.0614,2.3811.9921.1984,2.126-.2551,3.3732-1.389,1.2472-1.1055,2.4945-2.5512,3.7701-4.3087,1.2472-1.7575,2.4661-3.6567,3.6283-5.726,1.1906-2.0409,2.211-3.9685,3.0898-5.726-1.4173-.5953-2.3811-1.5874-2.9197-2.9764s-.7087-2.778-.5102-4.1953.737-2.6646,1.6157-3.7701c.8787-1.0772,1.9843-1.6157,3.3449-1.6157.4819,0,1.0772.0283,1.8142.1134.737.0567,1.389.4252,1.9276,1.0488.5386.652.8504,1.6724.9071,3.0898.085,1.4173-.2835,3.4866-1.1055,6.1795,2.6929-.0567,4.8756-.4252,6.4913-1.1055s2.8913-1.4173,3.7984-2.2394c.9071-.7937,1.5024-1.5874,1.8142-2.3811.3118-.7654.5386-1.2472.652-1.4457.2268-.4819.5386-.7654.9638-.8787.4535-.085.8787-.0567,1.2756.1701.3969.1984.7087.5102.9071.9638.1984.4252.1984.9071,0,1.4457-.5386,1.3039-1.389,2.4661-2.5228,3.5433-1.1622,1.1055-2.4945,2.0126-3.9969,2.7496-1.5307.737-3.2315,1.3039-5.074,1.7291-1.8709.3969-3.7417.5669-5.6409.5102-.9354,2.0693-2.126,4.422-3.5717,6.9732-1.474,2.5795-3.1465,4.9606-5.0173,7.1433-1.8992,2.211-3.9685,3.9969-6.2362,5.4142-2.2677,1.4457-4.6772,2.0409-7.2567,1.8425-3.3732-.3402-6.0094-1.7575-7.937-4.252s-2.9764-5.5559-3.0898-9.1276c-.085-2.6929.1984-5.5276.7937-8.4472.6236-2.948,1.5307-5.8394,2.7496-8.674s2.6929-5.5276,4.4504-8.0504c1.7575-2.5512,3.7417-4.7622,5.9244-6.6331,2.211-1.8992,4.5921-3.3449,7.2-4.3654s5.3291-1.4457,8.1638-1.3323c1.2756.085,2.3244.3685,3.1748.8787s1.5307,1.1055,2.0976,1.8142c.5386.7087.9354,1.5024,1.1906,2.3244.2835.8504.4819,1.6441.6236,2.3811Z" style="fill:#00274c;"/><path d="m266.3858,380.5086c0,1.0772-.1984,1.8709-.5953,2.3528-.5386.9921-1.389,1.5024-2.5512,1.5024-.7937,0-1.5307-.2551-2.1827-.7937-.6236-.5386-.9638-1.2756-.9638-2.126,0-.5669.1701-1.0488.4819-1.5307.2835-.4819.6803-.8787,1.1622-1.2189-.5386-.9354-1.1622-1.4173-1.8709-1.4173-.737,0-1.474.2835-2.2961.8504-.822.5953-1.6441,1.3606-2.4661,2.3528-.8504.9638-1.6724,1.9559-2.4945,2.9764-1.4173,1.8142-2.778,3.9402-4.1102,6.3213-1.3039,2.4094-2.4661,4.8756-3.4866,7.3984-1.0205,2.5512-1.8425,5.0457-2.4378,7.5118s-.9354,4.7055-.9638,6.7465c-.0283,2.0126.2551,3.685.8504,5.0173.6236,1.3039,1.6441,2.0976,3.0614,2.3811.9921.1984,2.126-.2551,3.3732-1.389,1.2756-1.1055,2.5228-2.5512,3.7701-4.3087s2.4661-3.6567,3.6283-5.726c1.1906-2.0409,2.211-3.9685,3.0898-5.726-1.4173-.5953-2.3811-1.5874-2.9197-2.9764s-.7087-2.778-.5102-4.1953.737-2.6646,1.6157-3.7701c.8787-1.0772,1.9843-1.6157,3.3449-1.6157.4819,0,1.0772.0283,1.8142.1134.7654.0567,1.389.4252,1.9276,1.0488.5386.652.8504,1.6724.9071,3.0898.085,1.4173-.2835,3.4866-1.1055,6.1795,2.6929-.0567,4.8756-.4252,6.4913-1.1055s2.8913-1.4173,3.7984-2.2394c.9071-.7937,1.5307-1.5874,1.8142-2.3811.3118-.7654.5386-1.2472.6803-1.4457.1984-.4819.5102-.7654.9638-.8787.4252-.085.8504-.0567,1.2472.1701.3969.1984.7087.5102.9071.9638.2268.4252.2268.9071,0,1.4457-.5386,1.3039-1.3606,2.4661-2.5228,3.5433-1.1622,1.1055-2.4945,2.0126-3.9969,2.7496-1.5307.737-3.2031,1.3039-5.074,1.7291-1.8425.3969-3.7417.5669-5.6126.5102-.9638,2.0693-2.1543,4.422-3.6,6.9732-1.4457,2.5795-3.1181,4.9606-5.0173,7.1433-1.8992,2.211-3.9685,3.9969-6.2362,5.4142-2.2677,1.4457-4.6772,2.0409-7.2567,1.8425-3.3732-.3402-6.0094-1.7575-7.937-4.252s-2.948-5.5559-3.0898-9.1276c-.085-2.6929.1984-5.5276.7937-8.4472.6236-2.948,1.5307-5.8394,2.7496-8.674s2.6929-5.5276,4.4504-8.0504c1.7575-2.5512,3.7417-4.7622,5.9244-6.6331,2.211-1.8992,4.5921-3.3449,7.2-4.3654s5.3291-1.4457,8.1638-1.3323c1.2756.085,2.3528.3685,3.1748.8787.8504.5102,1.5591,1.1055,2.0976,1.8142s.9354,1.5024,1.2189,2.3244c.2551.8504.4535,1.6441.5953,2.3811Z" style="fill:#00274c;"/><path d="m289.9984,415.97c0,1.3039-.5669,2.211-1.7291,2.7496.3969.822.9921,1.2189,1.7291,1.2189.8787.0567,1.8992-.3685,3.0898-1.2756s2.4378-2.211,3.7417-3.9402c1.3323-1.7291,2.6929-3.8268,4.1102-6.3496,1.4173-2.4945,2.8346-5.3291,4.252-8.5039.8787-1.9559,1.6157-4.1102,2.1827-6.4346s.9071-4.5354,1.0205-6.6331c.085-2.0976-.085-3.9118-.5669-5.4142-.4819-1.5307-1.3606-2.4661-2.6362-2.8063-1.1339-.2551-2.3528-.0567-3.6.6236s-2.4945,1.6724-3.7417,2.9764c-1.2472,1.3323-2.4945,2.8913-3.7417,4.7339-1.2472,1.8142-2.4661,3.7134-3.6,5.6693-1.3606,3.515-2.948,7.3134-4.8189,11.3953s-3.7701,8.2488-5.7827,12.4724c-1.9843,4.1953-3.9402,8.3055-5.811,12.3024-1.8992,3.9685-3.5433,7.6252-4.9606,10.9417s-2.4945,6.1228-3.2031,8.4189-.8504,3.8268-.4535,4.6488c.2551.5386.0567,1.1055-.652,1.6724s-1.6441.8787-2.7496.9071-2.2677-.3118-3.4299-1.0488c-1.1906-.7654-2.0976-2.126-2.6929-4.1669-.3969-1.2189-.2835-3.1748.3402-5.8677.652-2.7213,1.6441-5.8677,2.948-9.4677,1.3323-3.6283,2.863-7.5402,4.6205-11.7071,1.7575-4.1953,3.5433-8.4189,5.4142-12.6709,1.8425-4.252,3.6567-8.3906,5.3575-12.4157,1.7291-4.0252,3.2315-7.6252,4.5071-10.8,1.3039-3.1748,2.2394-5.811,2.863-7.9087.5953-2.0693.7087-3.3449.2835-3.7417-.4535-.3969-.2551-.8787.652-1.4173.9354-.5386,2.0693-.8504,3.4583-.9071s2.778.2268,4.1953.9071,2.4378,2.0409,3.0614,4.0535c.1984.737.2268,1.8142.085,3.2598,2.5795-3.1181,5.3858-5.4142,8.4189-6.8598s6.4346-1.4173,10.2331.0567c2.6929,1.1622,4.6488,2.7496,5.811,4.8189,1.1906,2.0409,1.8992,4.3087,2.0976,6.7748s0,5.0457-.6236,7.7102c-.5953,2.6646-1.3323,5.1024-2.211,7.3417-1.7575,4.3937-3.7134,8.1071-5.8961,11.1402-2.1543,3.0614-4.422,5.4709-6.7748,7.3134,3.3732-.7654,6.3496-2.1827,8.9575-4.3087s5.074-4.6205,7.4551-7.4551c2.2394-2.6362,4.2236-5.3291,6.0378-8.0504,1.7858-2.7496,3.2598-5.2157,4.3937-7.4551.1984-.4819.5102-.7937.9071-.9638.4252-.1701.9071-.085,1.5307.2551.4819.2835.7654.652.8504,1.1055.1134.4819.0567.9354-.1417,1.3323-1.6157,3.3165-3.4866,6.5197-5.6126,9.6094-2.1543,3.1181-4.4787,6.1228-7.0583,9.0425-1.7008,1.8709-3.4866,3.6283-5.3575,5.2157-1.8992,1.5874-4.0252,2.8913-6.3496,3.9402s-4.9039,1.7858-7.7386,2.1827-6.0094.3969-9.5244,0h-1.5307c-.7937-.0567-1.6724-.2268-2.5795-.4535s-1.7575-.6236-2.5228-1.1622c-.7937-.5386-1.4457-1.2756-1.9843-2.1827s-.822-2.0409-.822-3.4016c0-1.474.3118-2.4661.9071-2.9197.6803-.6803,1.4457-1.0205,2.2394-1.0205.822,0,1.5307.2551,2.1827.7937s.9638,1.2472.9638,2.126Z" style="fill:#00274c;"/><path d="m371.7779,391.1669c.7937.5386.9921,1.2756.5953,2.211-1.1339,2.4378-2.5228,4.989-4.1102,7.6535s-3.3732,5.2724-5.3575,7.7953c-1.9843,2.5512-4.1102,4.8756-6.3496,7.0016-2.211,2.126-4.5354,3.8835-6.9165,5.2157-2.4094,1.3606-4.8472,2.2394-7.3701,2.6362-2.4945.3969-4.9606.1134-7.3984-.9071-2.6929-1.0772-4.6205-2.6646-5.811-4.7055-1.1906-2.0693-1.8709-4.337-2.0693-6.8598-.2268-2.4945,0-5.074.5953-7.7386.6236-2.6646,1.3606-5.1307,2.2394-7.3417,1.6157-4.1386,3.4299-7.6252,5.4142-10.4882s4.1102-5.2157,6.3213-7.0583c2.2394-1.8142,4.5354-3.1748,6.8882-4.0535,2.3811-.8787,4.7622-1.3039,7.2-1.3039,2.4945,0,4.337.5953,5.5276,1.8142s1.7858,2.8063,1.7858,4.7622-.5386,4.1386-1.6441,6.4913c-1.0772,2.3528-2.6079,4.6772-4.5921,6.9449-2.0126,2.2677-4.422,4.3087-7.2567,6.1795s-6.0094,3.2598-9.5244,4.1953c-.4819,1.7575-.7937,3.515-1.0205,5.2157-.1984,1.7291-.2268,3.3165-.085,4.7339s.4535,2.5795.9638,3.5433c.5102.9354,1.2756,1.5024,2.2677,1.7291,1.5024.2551,3.0898.0283,4.8189-.6803s3.4866-1.7575,5.2724-3.1748,3.5433-3.0898,5.2724-4.9606c1.7291-1.8992,3.3449-3.8835,4.8472-5.9811,1.5307-2.0976,2.8913-4.1953,4.0535-6.2362,1.1906-2.0693,2.126-3.9685,2.8063-5.726.1984-.5386.5386-.9071,1.0488-1.1055.5102-.2268,1.0488-.1417,1.5874.1984Zm-29.7071,6.378c-.3402.737-.5953,1.4173-.7937,2.0126,4.0535-1.4173,7.3701-3.3449,9.978-5.811,2.5795-2.4661,4.5354-4.9039,5.811-7.3134,1.3039-2.3811,1.9559-4.4504,1.9843-6.2079s-.5669-2.6929-1.7858-2.7496c-1.8142-.0567-4.1102,1.7008-6.8882,5.2724-2.7496,3.5717-5.5276,8.5039-8.3055,14.7968Z" style="fill:#00274c;"/><path d="m372.0614,394.2c-.1984.3969-.5102.6803-.9638.822-.4252.1134-.822.1134-1.2189,0-.3685-.1417-.652-.3969-.9071-.7654-.2268-.3685-.2551-.822-.0567-1.389.2268-.5953.5953-1.5307,1.1339-2.778s1.0772-2.5512,1.6157-3.9402,1.0772-2.7496,1.6157-4.0535c.5386-1.3323.9071-2.4094,1.1339-3.2882-1.5591-.7654-2.8913-1.9276-4.0252-3.5717-1.1055-1.6157-1.6724-3.2315-1.6724-4.8472,0-2.0976.5386-3.8835,1.6441-5.3858,1.0772-1.474,2.6929-2.211,4.8472-2.211,1.3606,0,2.5228.5386,3.4866,1.6724.9921,1.1055,1.5024,2.4378,1.5874,3.9969,0,.8787-.0567,2.0976-.1701,3.6567-.085,1.5307-.2835,2.8346-.5386,3.8268.3402.2835.7937.4535,1.3606.5102.5669.085,1.1906.1134,1.8709.1134,1.5024,0,2.6646-.1701,3.515-.5102.822-.3402,1.5591-.6803,2.1543-1.0488.6236-.3969,1.2189-.737,1.8425-1.0772.5953-.3402,1.4173-.5102,2.4378-.5102,1.3323,0,2.6929.3402,4.0535,1.0205,1.3323.6803,2.3244,1.9843,2.9197,3.9402.6236,1.9559.5102,4.337-.3118,7.1433-.7937,2.8063-1.9276,5.726-3.3732,8.7591-1.474,3.0614-3.0047,6.0661-4.6772,9.0425-1.6441,2.948-3.0331,5.6126-4.1386,7.937-1.1339,2.3244-1.7575,4.1953-1.9276,5.5843s.5102,2.0126,2.0693,1.8709c.6236-.0567,1.4457-.5953,2.5228-1.6157,1.1055-1.0205,2.2677-2.3244,3.5717-3.9118,1.2756-1.5874,2.5795-3.3449,3.9402-5.3291,1.3606-1.9559,2.6362-3.9118,3.8551-5.8677s2.2961-3.7984,3.2315-5.5559c.9638-1.7575,1.6157-3.2315,2.0409-4.3654.1984-.5386.5386-.8787.9921-1.0205.4819-.1417.9354-.1417,1.3323,0s.7087.3969.9638.822c.2268.3969.2268.822-.0567,1.3039-.5386,1.1622-1.3039,2.7213-2.3244,4.7055-1.0205,2.0126-2.211,4.1386-3.6,6.4063-1.389,2.2394-2.8913,4.5354-4.5071,6.8315s-3.2882,4.3937-5.0173,6.2646c-1.7291,1.8992-3.4583,3.4583-5.2157,4.6772s-3.4583,1.8142-5.074,1.8142c-1.3606.085-2.5228-.1984-3.4866-.7937-.9921-.6236-1.7858-1.474-2.3811-2.5795-.6236-1.1339-1.0205-2.4661-1.2189-4.0535s-.1984-3.3165,0-5.1307c.2551-2.6362.9071-5.4425,1.9276-8.4189s2.126-5.8961,3.3449-8.7591,2.3811-5.5559,3.5433-8.0504c1.1339-2.4945,1.9843-4.6205,2.5228-6.378-1.4173.5386-3.0047.8504-4.8189.9638-1.7858.085-3.5433-.085-5.3008-.5669-.1984.4819-.5669,1.3323-1.0772,2.5795s-1.0488,2.6079-1.6724,4.0535c-.5953,1.4457-1.2189,2.863-1.8142,4.252-.6236,1.389-1.1055,2.4661-1.5307,3.2031Z" style="fill:#00274c;"/><path d="m471.274,421.7527l-.085.1134c-1.5024.737-2.9197,1.3039-4.252,1.7291-1.3606.3969-2.4945.5953-3.4583.5953-2.6929,0-4.7622-.6803-6.2362-2.0693-1.4457-1.389-2.4094-3.0331-2.8913-4.9323-.4535-1.8709-.5386-3.7701-.1984-5.6693s.9921-3.3449,1.9276-4.3654c1.3606-1.4173,2.5795-2.3528,3.6567-2.8346,1.0772-.4535,1.9843-.6236,2.7213-.5102.7654.085,1.4457.3969,2.0976.9354.6236.5386.9638,1.2189.9638,2.0126,0,.8787-.3402,1.6157-.9638,2.2394-.652.5953-1.389.9071-2.1827.9071-.6236,0-1.1906-.1984-1.7291-.5669s-.9071-.8504-1.1055-1.474c-.8787,1.0205-1.5024,2.2394-1.8425,3.6567-.3118,1.4173-.3969,2.778-.1984,4.0535s.737,2.3811,1.5874,3.2882c.822.9071,2.0126,1.4173,3.4866,1.474.5386,0,1.3039-.2551,2.3244-.7654s2.0409-1.3323,3.0898-2.5228,1.9843-2.6929,2.8063-4.5638c.7937-1.8425,1.2756-4.1102,1.4457-6.7465s-.1134-5.6976-.8504-9.2126-2.1543-7.4551-4.252-11.8488c-.6803,1.2756-1.4457,2.6929-2.2961,4.1953-.822,1.5307-1.5874,2.9764-2.2677,4.3087-.3402.4819-.737.737-1.2189.822-.4819.0567-.9071,0-1.3039-.1701-.4252-.1701-.7087-.4252-.8787-.7937s-.1134-.7937.1701-1.2756c.5386-1.1339,1.0488-2.1827,1.5024-3.0898.4819-.9071.9638-1.7575,1.4173-2.5795.4819-.822.9071-1.6441,1.3323-2.4945.3969-.822.8504-1.7291,1.3039-2.6646-.737-1.0772-1.3039-2.2677-1.7291-3.5433-.3969-1.3039-.5953-2.6362-.5953-4.0535,0-.6236.1134-1.389.3685-2.2961.2268-.9071.6236-1.8142,1.1906-2.7213.5953-.9354,1.389-1.7008,2.3811-2.3528,1.0205-.6236,2.3528-.9638,3.9685-.9638,1.6724,0,2.9197.3969,3.685,1.1339.7937.737,1.2189,1.6724,1.2756,2.8346.0567,1.1339-.1701,2.4094-.7087,3.7984s-1.2472,2.7496-2.126,4.1102l-.3118.5953c2.6362,3.0331,4.7622,5.9528,6.3496,8.7307,1.5874,2.7496,2.778,5.3858,3.5717,7.8803.822,2.5228,1.2756,4.8472,1.389,7.0016.085,2.1543-.085,4.1953-.5669,6.0661,2.2394-2.5512,4.2236-5.074,5.9811-7.5968,1.7575-2.4945,3.2031-4.8472,4.3654-7.0866.1984-.4819.5102-.7937.9071-.9638s.9071-.085,1.5024.2551c.4819.2835.7654.652.8787,1.1055.085.4819.0567.9354-.1417,1.3323-1.6441,3.3165-3.515,6.4063-5.6409,9.326-2.126,2.8913-4.4787,5.811-7.0299,8.7024-1.8425,2.0409-3.7417,3.8551-5.726,5.4709-2.0126,1.6157-4.252,2.9764-6.7465,4.0535h-.1134Z" style="fill:#00274c;"/><path d="m347.5984,356.6409l-25.3701,2.2677h35.5748c2.7496-5.1307,7.2-11.3102,9.1276-13.6063,26.1071-31.1811,70.4409-37.8709,106.2709-14.1165,6.6047,4.3937,10.6299,8.9008,15.3638,14.1732,4.3937,4.8472,6.5764,9.0709,9.0142,13.5496h41.5276l1.8142-.1984-32.6551-2.4378c-1.8142-2.0976-4.3654-7.3417-6.1228-9.978-4.1102-6.0945-9.7228-12.6709-15.222-17.263-1.6157-1.3606-2.6929-2.4378-4.3654-3.7417-41.2157-32.315-101.7921-20.9197-128.8913,20.6646-1.7008,2.6079-4.9606,7.4835-6.0661,10.6866Z" style="fill:#ffcb05; fill-rule:evenodd;"/><path d="m371.3244,358.9086c10.4598-5.1307,16.4126-8.4756,32.4-8.3622,22.1953.1701,16.8094,4.6488,42.548-.0567-1.2756-1.8992-2.5228-2.4378-4.3654-3.685-12.3307-8.2772-24.463-13.7197-40.5071-13.8614-8.3339-.0567-13.3512,5.1874-20.1543,10.4882-2.9197,2.2677-10.2047,10.0913-13.1244,15.4772h3.2031Z" style="fill:#08254d; fill-rule:evenodd;"/><path d="m456.6189,358.9086c-7.7953-7.7102-4.5638-4.5638-14.6551-3.4583-16.0157,1.7575-33.5905-3.3449-51.2504-.1134-3.515.6236-7.1717,1.5874-10.2898,2.8913-.4535.1701-.9921.3969-1.5591.6803h77.7543Z" style="fill:#08254d; fill-rule:evenodd;"/><path d="m406.5024,329.485c31.3795,4.7906,37.3039,16.7811,44.4189,18.7087,2.863-5.3858,4.337-7.1433,1.5307-14.7968-1.7575-4.7906-3.6567-5.0457-12.6142-6.5764-8.2205-1.4173-17.3197-1.3606-25.6252.2551-2.0693.4252-5.9811,1.0772-7.7102,2.4094Z" style="fill:#08254d; fill-rule:evenodd;"/><path d="m453.4441,351.5386c2.0409,1.1055,5.8394,4.8472,7.9937,7.3701h6.9732c1.7008-.4819,3.4299-.9354,5.2441-1.2756,3.9685-.7937,7.7102-.9921,11.622-1.7008-3.4299-7.5685-20.778-21.685-28.8-23.8394,2.4945,13.663.1701,11.9339-3.0331,19.4457Z" style="fill:#08254d; fill-rule:evenodd;"/><path d="m317.863,432.2409l29.1968,1.8992c3.4016,11.8205,19.6724,28.2331,29.9055,35.5748,29.1685,20.863,70.9795,20.6646,100.5732.7087,5.4992-3.685,13.1244-10.2614,17.2063-15.2504,2.5512-3.1181,4.6488-5.3858,7.1717-9.0709,1.5874-2.2961,5.0457-7.6819,6.0378-10.6866l24.548-3.1748h-34.1291c-4.9606,10.3748-16.7244,23.0173-25.5118,28.8567-12.5575,8.3055-27.0992,14.2866-45.9496,14.0882-18-.1984-33.9024-6.5764-45.2409-14.8252-7.8236-5.6409-18.7654-16.526-24.463-28.1197h-39.3449Z" style="fill:#ffcb05; fill-rule:evenodd;"/><path d="m370.8709,436.748c6.5764,12.6425,27.4677,25.4835,43.3134,28.1197,3.7984-5.6126,7.852-11.1402,11.7071-17.7165,2.3244-3.9969,5.9528-9.9213,8.3906-14.9102h-60.2929c-1.0488,1.5307-2.0976,3.0614-3.1181,4.5071Z" style="fill:#08254d; fill-rule:evenodd;"/><path d="m418.8614,465.6614c20.0126,1.4457,34.611-1.3323,50.9953-13.3512,3.1748-2.2961,2.863-2.6646,4.1953-6.8031.7654-2.3244,3.0047-8.8157,4.0819-13.2661h-39.4299c-3.9402,7.7953-9.8079,18.2835-13.8331,24.3496-1.5874,2.3811-5.0173,6.9165-6.0094,9.0709Z" style="fill:#08254d; fill-rule:evenodd;"/><path d="m478.1055,444.685c2.2394-1.3039,7.0016-7.7102,9.8646-12.4441h-6.9449l-2.9197,12.4441Z" style="fill:#08254d; fill-rule:evenodd;"/><path d="m368.348,433.6582c.3969-.3118.9638-.822,1.5307-1.4173h-2.2961c.2551.4535.5102.9354.7654,1.4173Z" style="fill:#08254d; fill-rule:evenodd;"/><path d="m438.5622,376.4834c.737-.6803.9354-2.3528,1.1339-3.8268,0-.0567.0283-.1134.0283-.1701-.822-.2551-1.6441-.4535-2.4945-.5953-3.2315-.6236-6.4346-.6236-9.4961-.085,1.8709,1.389,4.7055,3.6567,7.7386,6.8031,1.389-.7937,2.4661-1.5874,3.0898-2.126Z" style="fill:#00274c; fill-rule:evenodd;"/><path d="m448.9087,393.7748c-1.3039-.085-2.4094-.085-3.4016.0283,2.948,8.5323,2.8346,18.5953,1.9276,25.7386,5.2157-3.6283,9.1276-9.1276,10.6583-15.7606-2.3244-4.252-5.4142-9.7228-9.1843-10.0063Z" style="fill:#00274c; fill-rule:evenodd;"/><path d="m423.9354,382.1811c3.2315-.0567,6.4346-1.0772,9.0709-2.2961-4.2236-4.252-7.937-6.7465-8.674-7.2283-5.5559,1.7858-10.4031,5.3575-13.7197,10.148,3.2598-.6236,6.6898-.6236,10.0346-.6236h3.2882Z" style="fill:#00274c; fill-rule:evenodd;"/><path d="m441.737,386.3197c.2268.3118.4535.652.6803.9921.7937,1.2756,1.5024,2.6079,2.0976,3.9969,1.3323-.2551,2.8346-.3118,4.5921-.1701,4.1669.3118,7.1717,4.2236,9.6094,8.3622.3402-5.5276-1.0488-10.8283-3.7417-15.3071-1.9276-.1417-4.1102-.1417-6.3496.085-1.474.1701-3.9118.8787-6.8882,2.0409Z" style="fill:#00274c; fill-rule:evenodd;"/><path d="m435.7842,399.0756c1.7575-3.4016,3.4866-5.7543,6.1795-7.0016-.5102-1.1622-1.1055-2.2677-1.7858-3.3165-.3118-.4819-.6236-.9354-.9354-1.4173-10.8283,4.7339-26.2205,14.2299-29.3953,24.4063,3.1748,5.1307,8.0787,9.1276,14.0598,11.1402,3.0614-4.0252,6.8882-12.6709,9.1559-17.8299,1.0772-2.4661,2.0126-4.6205,2.7213-5.9811Z" style="fill:#00274c; fill-rule:evenodd;"/><path d="m426.0047,391.3086c3.9118-2.4378,7.9654-4.5354,11.622-6.1512-.9071-1.1622-1.8142-2.2394-2.7213-3.2598-3.0614,1.5307-6.9449,2.8346-10.9134,2.9197-1.1339.0283-2.2677,0-3.3449,0-4.252,0-8.3055,0-11.9339,1.2189-1.0772,2.126-1.8709,4.4504-2.3528,6.9165-1.0488,5.4992-.2835,10.9417,1.8709,15.7039,3.3165-7.1717,11.2252-13.2661,17.7732-17.348Z" style="fill:#00274c; fill-rule:evenodd;"/><path d="m440.1496,384.0803c3.4583-1.389,6.378-2.2394,8.1921-2.4378,1.6441-.1701,3.2315-.1984,4.7339-.1701-2.8063-3.5433-6.4913-6.378-10.8-8.1071-.2551,1.8142-.5669,3.8268-1.9559,5.074-.6236.5669-1.7008,1.3606-3.0331,2.1543.9638,1.0772,1.9276,2.2394,2.863,3.4866Z" style="fill:#00274c; fill-rule:evenodd;"/><path d="m438.137,400.2945c-.652,1.3039-1.5874,3.4016-2.6646,5.8394-3.1748,7.1717-6.0945,13.578-8.8724,17.5181.2835.0567.5669.1134.822.1701,6.0661,1.1339,12.0189.1134,17.0929-2.5228,1.2189-7.3984,1.4173-18.1701-1.5591-26.7874-1.9843.9638-3.2882,2.8063-4.8189,5.7827Z" style="fill:#00274c; fill-rule:evenodd;"/></g></g></svg>